<?xml version="1.0" encoding="UTF-8"?>
<svg width="18px" height="18px" viewBox="0 0 18 18" version="1.1" xmlns="http://www.w3.org/2000/svg" xmlns:xlink="http://www.w3.org/1999/xlink">
    <title>服务热线</title>
    <g id="v1.0" stroke="none" stroke-width="1" fill="none" fill-rule="evenodd">
        <g id="电脑管家-系统体检" transform="translate(-511.000000, -436.000000)" fill="#000000" fill-rule="nonzero">
            <g id="服务热线" transform="translate(511.000000, 436.000000)">
                <rect id="矩形" opacity="0" x="0" y="0" width="18" height="18"></rect>
                <path d="M16.4838867,6.94107422 C16.1422559,3.03894141 12.9234727,0.00896484375 9.021375,0.00896484375 C5.11927734,0.00896484375 1.85554687,3.03895898 1.55882812,6.94107422 C0.650742187,7.32766992 0.003375,8.24475586 0.003375,9.32368359 L0.003375,11.0589434 C0.003375,12.4885195 1.16321484,13.6573418 2.57480859,13.6573418 L3.63575391,13.6573418 C3.99540234,13.6573418 4.29208594,13.360623 4.29208594,12.9920098 L4.29208594,7.39061719 C4.29208594,7.02198633 3.99538477,6.72528516 3.63575391,6.72528516 L2.83552734,6.72528516 C3.26710547,3.65034375 5.83852148,1.31268164 9.01235742,1.31268164 C12.1861758,1.31268164 14.7576094,3.65034375 15.1891875,6.72526758 L14.3799961,6.72526758 C14.0203477,6.72526758 13.7236289,7.02198633 13.7236289,7.39059961 L13.7236289,13.0010098 C13.7236289,13.369623 14.0203477,13.6663418 14.3799961,13.6663418 L14.62275,13.6663418 C14.3620137,15.2307773 13.2111562,16.0938984 10.9364414,16.3096875 C10.7655996,16.0040039 10.4239512,15.8331621 10.0373203,15.8331621 L8.76958594,15.8331621 C8.17618359,15.8331621 7.68167578,16.3097051 7.68167578,16.9120898 C7.68167578,17.5234746 8.14921875,18 8.75162109,18 L10.0373379,18 C10.3789863,18 10.6397402,17.8741406 10.8555117,17.6133867 C13.9034707,17.3975977 15.6656953,16.0489512 15.9174492,13.5854121 C17.0772891,13.369623 17.976375,12.2817129 17.976375,11.0319609 L17.976375,9.29671875 C18.0213398,8.23577344 17.3829902,7.3276875 16.4838867,6.94107422 L16.4838867,6.94107422 Z M3.00638672,8.32566797 L3.00638672,12.0569414 C3.00638672,12.2187832 2.87150977,12.3536602 2.70966797,12.3536602 L2.57480859,12.3536602 C1.8645293,12.3536602 1.2890918,11.7692227 1.2890918,11.0499434 L1.2890918,9.31468359 C1.2890918,8.5954043 1.8645293,8.01098438 2.57480859,8.01098438 L2.70966797,8.01098438 C2.88050977,8.01998438 3.00638672,8.15484375 3.00638672,8.32566797 Z M16.7356582,11.0589434 C16.7356582,11.7782227 16.1602207,12.3626426 15.4499414,12.3626426 L15.3150645,12.3626426 C15.1532402,12.3626426 15.0183633,12.2277656 15.0183633,12.0659238 L15.0183633,8.32568555 C15.0183633,8.16386133 15.1532402,8.02898438 15.315082,8.02898438 L15.4499414,8.02898438 C16.1602207,8.02898438 16.7356582,8.6134043 16.7356582,9.33268359 L16.7356582,11.0589609 L16.7356582,11.0589434 Z M11.709668,11.9310645 C11.9973867,11.7512402 12.0782988,11.373627 11.8984922,11.0949082 C11.7815977,10.915084 11.5838086,10.8161895 11.386002,10.8161895 C11.2781074,10.8161895 11.1612305,10.8431543 11.0623184,10.915084 C10.019373,11.580416 8.67070898,11.6973105 7.52885156,11.2297676 C7.3220625,11.1488555 7.12425586,11.0409609 6.92644922,10.915084 C6.82755469,10.8521543 6.71067773,10.8161895 6.6027832,10.8161895 C6.40497656,10.8161895 6.20716992,10.915084 6.09029297,11.0949082 C5.91046875,11.3826094 5.99139844,11.7512402 6.27909961,11.9310645 C6.53085352,12.0929063 6.79158984,12.2277832 7.07030859,12.3356602 L7.07930859,12.3356602 C8.57181445,12.9560449 10.3430391,12.8032031 11.709668,11.9310645 L11.709668,11.9310645 Z" id="形状"></path>
            </g>
        </g>
    </g>
</svg>