<?xml version="1.0" encoding="UTF-8"?>
<svg width="56px" height="56px" viewBox="0 0 56 56" version="1.1" xmlns="http://www.w3.org/2000/svg" xmlns:xlink="http://www.w3.org/1999/xlink">
    <title>ICON/Security_tools/Host配置修改</title>
    <defs>
        <filter x="-30.7%" y="-26.2%" width="161.4%" height="167.5%" filterUnits="objectBoundingBox" id="filter-1">
            <feOffset dx="0" dy="1" in="SourceAlpha" result="shadowOffsetOuter1"></feOffset>
            <feGaussianBlur stdDeviation="1" in="shadowOffsetOuter1" result="shadowBlurOuter1"></feGaussianBlur>
            <feColorMatrix values="0 0 0 0 0   0 0 0 0 0   0 0 0 0 0  0 0 0 0.2 0" type="matrix" in="shadowBlurOuter1" result="shadowMatrixOuter1"></feColorMatrix>
            <feMerge>
                <feMergeNode in="shadowMatrixOuter1"></feMergeNode>
                <feMergeNode in="SourceGraphic"></feMergeNode>
            </feMerge>
        </filter>
        <linearGradient x1="50%" y1="-2.81825888%" x2="50%" y2="100%" id="linearGradient-2">
            <stop stop-color="#00CAFF" offset="0%"></stop>
            <stop stop-color="#007EFF" offset="100%"></stop>
        </linearGradient>
        <rect id="path-3" x="0" y="0" width="44" height="40" rx="6"></rect>
        <filter x="-27.3%" y="-22.5%" width="154.5%" height="160.0%" filterUnits="objectBoundingBox" id="filter-4">
            <feOffset dx="0" dy="3" in="SourceAlpha" result="shadowOffsetOuter1"></feOffset>
            <feGaussianBlur stdDeviation="3.5" in="shadowOffsetOuter1" result="shadowBlurOuter1"></feGaussianBlur>
            <feColorMatrix values="0 0 0 0 0   0 0 0 0 0.581939518   0 0 0 0 1  0 0 0 0.231013371 0" type="matrix" in="shadowBlurOuter1"></feColorMatrix>
        </filter>
    </defs>
    <g id="ICON/Security_tools/Host配置修改" stroke="none" stroke-width="1" fill="none" fill-rule="evenodd">
        <g id="Group" filter="url(#filter-1)" transform="translate(6.000000, 8.000000)">
            <g id="Rectangle-245">
                <use fill="black" fill-opacity="1" filter="url(#filter-4)" xlink:href="#path-3"></use>
                <use fill="url(#linearGradient-2)" fill-rule="evenodd" xlink:href="#path-3"></use>
            </g>
            <path d="M17,24 L26,24 C26.5522847,24 27,23.5522847 27,23 C27,22.4477153 26.5522847,22 26,22 L17,22 C16.4477153,22 16,22.4477153 16,23 C16,23.5522847 16.4477153,24 17,24 L17,24 Z M14.132456,13.9879674 L7.47000106,18.1520017 C7.00166453,18.444712 6.85929136,19.0616624 7.1520017,19.5299989 C7.44471203,19.9983355 8.06166241,20.1407086 8.52999894,19.8479983 L16.5299989,14.8479983 C17.156667,14.4563308 17.156667,13.5436692 16.5299989,13.1520017 L8.52999894,8.1520017 C8.06166241,7.85929136 7.44471203,8.00166453 7.1520017,8.47000106 C6.85929136,8.93833759 7.00166453,9.55528797 7.47000106,9.8479983 L14.132456,13.9879674 Z" id="Combined-Shape" fill="#FFFFFF" fill-rule="nonzero"></path>
        </g>
    </g>
</svg>