<?xml version="1.0" encoding="UTF-8"?>
<svg width="56px" height="56px" viewBox="0 0 56 56" version="1.1" xmlns="http://www.w3.org/2000/svg" xmlns:xlink="http://www.w3.org/1999/xlink">
    <title>ICON/Security_tools/输入法修复</title>
    <defs>
        <filter x="-13.5%" y="-14.1%" width="127.1%" height="128.3%" filterUnits="objectBoundingBox" id="filter-1">
            <feOffset dx="0" dy="1" in="SourceAlpha" result="shadowOffsetOuter1"></feOffset>
            <feGaussianBlur stdDeviation="1" in="shadowOffsetOuter1" result="shadowBlurOuter1"></feGaussianBlur>
            <feColorMatrix values="0 0 0 0 0   0 0 0 0 0   0 0 0 0 0  0 0 0 0.2 0" type="matrix" in="shadowBlurOuter1" result="shadowMatrixOuter1"></feColorMatrix>
            <feMerge>
                <feMergeNode in="shadowMatrixOuter1"></feMergeNode>
                <feMergeNode in="SourceGraphic"></feMergeNode>
            </feMerge>
        </filter>
        <linearGradient x1="50%" y1="0%" x2="50%" y2="100%" id="linearGradient-2">
            <stop stop-color="#DDDDDD" offset="0%"></stop>
            <stop stop-color="#9E9E9E" offset="100%"></stop>
        </linearGradient>
        <path d="M5.625,0 L42.375,0 C45.4816017,-5.20092827e-15 48,2.51839828 48,5.625 L48,20.775 C48,23.8816017 45.4816017,26.4 42.375,26.4 L5.625,26.4 C2.51839828,26.4 1.2686274e-15,23.8816017 0,20.775 L0,5.625 C5.07729435e-16,2.51839828 2.51839828,1.4588519e-15 5.625,0 Z" id="path-3"></path>
        <filter x="-1.0%" y="-1.9%" width="102.1%" height="103.8%" filterUnits="objectBoundingBox" id="filter-4">
            <feOffset dx="0" dy="-1" in="SourceAlpha" result="shadowOffsetInner1"></feOffset>
            <feComposite in="shadowOffsetInner1" in2="SourceAlpha" operator="arithmetic" k2="-1" k3="1" result="shadowInnerInner1"></feComposite>
            <feColorMatrix values="0 0 0 0 0   0 0 0 0 0   0 0 0 0 0  0 0 0 0.25 0" type="matrix" in="shadowInnerInner1"></feColorMatrix>
        </filter>
        <linearGradient x1="50%" y1="0%" x2="50%" y2="100%" id="linearGradient-5">
            <stop stop-color="#E9E9E9" offset="0%"></stop>
            <stop stop-color="#E3E3E3" offset="100%"></stop>
        </linearGradient>
        <path d="M18,16.8 L37.2,16.8 C38.5254834,16.8 39.6,17.8745166 39.6,19.2 C39.6,20.5254834 38.5254834,21.6 37.2,21.6 L18,21.6 C16.6745166,21.6 15.6,20.5254834 15.6,19.2 C15.6,17.8745166 16.6745166,16.8 18,16.8 Z M6,10.8 L9.6,10.8 C10.9254834,10.8 12,11.8745166 12,13.2 C12,14.5254834 10.9254834,15.6 9.6,15.6 L6,15.6 C4.6745166,15.6 3.6,14.5254834 3.6,13.2 C3.6,11.8745166 4.6745166,10.8 6,10.8 Z M39.6,10.8 L43.2,10.8 C44.5254834,10.8 45.6,11.8745166 45.6,13.2 C45.6,14.5254834 44.5254834,15.6 43.2,15.6 L39.6,15.6 C38.2745166,15.6 37.2,14.5254834 37.2,13.2 C37.2,11.8745166 38.2745166,10.8 39.6,10.8 Z M43.2,21.6 C44.5254834,21.6 45.6,20.5254834 45.6,19.2 C45.6,17.8745166 44.5254834,16.8 43.2,16.8 C41.8745166,16.8 40.8,17.8745166 40.8,19.2 C40.8,20.5254834 41.8745166,21.6 43.2,21.6 Z M6,21.6 C7.3254834,21.6 8.4,20.5254834 8.4,19.2 C8.4,17.8745166 7.3254834,16.8 6,16.8 C4.6745166,16.8 3.6,17.8745166 3.6,19.2 C3.6,20.5254834 4.6745166,21.6 6,21.6 Z M12,21.6 C13.3254834,21.6 14.4,20.5254834 14.4,19.2 C14.4,17.8745166 13.3254834,16.8 12,16.8 C10.6745166,16.8 9.6,17.8745166 9.6,19.2 C9.6,20.5254834 10.6745166,21.6 12,21.6 Z M15.6,15.6 C16.9254834,15.6 18,14.5254834 18,13.2 C18,11.8745166 16.9254834,10.8 15.6,10.8 C14.2745166,10.8 13.2,11.8745166 13.2,13.2 C13.2,14.5254834 14.2745166,15.6 15.6,15.6 Z M21.6,15.6 C22.9254834,15.6 24,14.5254834 24,13.2 C24,11.8745166 22.9254834,10.8 21.6,10.8 C20.2745166,10.8 19.2,11.8745166 19.2,13.2 C19.2,14.5254834 20.2745166,15.6 21.6,15.6 Z M6,9.6 C7.3254834,9.6 8.4,8.5254834 8.4,7.2 C8.4,5.8745166 7.3254834,4.8 6,4.8 C4.6745166,4.8 3.6,5.8745166 3.6,7.2 C3.6,8.5254834 4.6745166,9.6 6,9.6 Z M31.2,9.6 C32.5254834,9.6 33.6,8.5254834 33.6,7.2 C33.6,5.8745166 32.5254834,4.8 31.2,4.8 C29.8745166,4.8 28.8,5.8745166 28.8,7.2 C28.8,8.5254834 29.8745166,9.6 31.2,9.6 Z M33.6,15.6 C34.9254834,15.6 36,14.5254834 36,13.2 C36,11.8745166 34.9254834,10.8 33.6,10.8 C32.2745166,10.8 31.2,11.8745166 31.2,13.2 C31.2,14.5254834 32.2745166,15.6 33.6,15.6 Z M27.6,15.6 C28.9254834,15.6 30,14.5254834 30,13.2 C30,11.8745166 28.9254834,10.8 27.6,10.8 C26.2745166,10.8 25.2,11.8745166 25.2,13.2 C25.2,14.5254834 26.2745166,15.6 27.6,15.6 Z M12,9.6 C13.3254834,9.6 14.4,8.5254834 14.4,7.2 C14.4,5.8745166 13.3254834,4.8 12,4.8 C10.6745166,4.8 9.6,5.8745166 9.6,7.2 C9.6,8.5254834 10.6745166,9.6 12,9.6 Z M18,9.6 C19.3254834,9.6 20.4,8.5254834 20.4,7.2 C20.4,5.8745166 19.3254834,4.8 18,4.8 C16.6745166,4.8 15.6,5.8745166 15.6,7.2 C15.6,8.5254834 16.6745166,9.6 18,9.6 Z M37.2,9.6 C38.5254834,9.6 39.6,8.5254834 39.6,7.2 C39.6,5.8745166 38.5254834,4.8 37.2,4.8 C35.8745166,4.8 34.8,5.8745166 34.8,7.2 C34.8,8.5254834 35.8745166,9.6 37.2,9.6 Z M43.2,9.6 C44.5254834,9.6 45.6,8.5254834 45.6,7.2 C45.6,5.8745166 44.5254834,4.8 43.2,4.8 C41.8745166,4.8 40.8,5.8745166 40.8,7.2 C40.8,8.5254834 41.8745166,9.6 43.2,9.6 Z M25.2,9.6 C26.5254834,9.6 27.6,8.5254834 27.6,7.2 C27.6,5.8745166 26.5254834,4.8 25.2,4.8 C23.8745166,4.8 22.8,5.8745166 22.8,7.2 C22.8,8.5254834 23.8745166,9.6 25.2,9.6 Z" id="path-6"></path>
        <filter x="-1.2%" y="-3.0%" width="102.4%" height="111.9%" filterUnits="objectBoundingBox" id="filter-7">
            <feOffset dx="0" dy="1" in="SourceAlpha" result="shadowOffsetOuter1"></feOffset>
            <feColorMatrix values="0 0 0 0 0   0 0 0 0 0   0 0 0 0 0  0 0 0 0.08 0" type="matrix" in="shadowOffsetOuter1"></feColorMatrix>
        </filter>
        <filter x="-1.2%" y="-3.0%" width="102.4%" height="111.9%" filterUnits="objectBoundingBox" id="filter-8">
            <feOffset dx="0" dy="1" in="SourceAlpha" result="shadowOffsetInner1"></feOffset>
            <feComposite in="shadowOffsetInner1" in2="SourceAlpha" operator="arithmetic" k2="-1" k3="1" result="shadowInnerInner1"></feComposite>
            <feColorMatrix values="0 0 0 0 1   0 0 0 0 1   0 0 0 0 1  0 0 0 0.3 0" type="matrix" in="shadowInnerInner1"></feColorMatrix>
        </filter>
        <linearGradient x1="90.1902497%" y1="100%" x2="9.8097503%" y2="10.8496407%" id="linearGradient-9">
            <stop stop-color="#05E873" offset="0%"></stop>
            <stop stop-color="#00D1B1" offset="100%"></stop>
        </linearGradient>
        <path d="M12.6,0 L31.4,0 C33.3882251,-1.25340945e-15 35,1.6117749 35,3.6 L35,19.9220196 C35,20.5032279 34.7009054,21.0435319 34.2083627,21.3520847 L22.8958627,28.4387878 C22.3479385,28.7820343 21.6520615,28.7820343 21.1041373,28.4387878 L9.79163729,21.3520847 C9.29909458,21.0435319 9,20.5032279 9,19.9220196 L9,3.6 C9,1.6117749 10.6117749,-5.22947394e-16 12.6,0 Z" id="path-10"></path>
        <filter x="-5.8%" y="-5.2%" width="111.5%" height="110.3%" filterUnits="objectBoundingBox" id="filter-11">
            <feGaussianBlur stdDeviation="1" in="SourceAlpha" result="shadowBlurInner1"></feGaussianBlur>
            <feOffset dx="0" dy="1" in="shadowBlurInner1" result="shadowOffsetInner1"></feOffset>
            <feComposite in="shadowOffsetInner1" in2="SourceAlpha" operator="arithmetic" k2="-1" k3="1" result="shadowInnerInner1"></feComposite>
            <feColorMatrix values="0 0 0 0 1   0 0 0 0 1   0 0 0 0 1  0 0 0 0.811071009 0" type="matrix" in="shadowInnerInner1"></feColorMatrix>
        </filter>
    </defs>
    <g id="ICON/Security_tools/输入法修复" stroke="none" stroke-width="1" fill="none" fill-rule="evenodd">
        <rect id="矩形" opacity="0" x="0" y="0" width="56" height="56"></rect>
        <g id="编组-2" transform="translate(4.000000, 6.000000)" filter="url(#filter-1)">
            <g id="编组" transform="translate(0.000000, 19.600000)">
                <g id="矩形">
                    <use fill="url(#linearGradient-2)" fill-rule="evenodd" xlink:href="#path-3"></use>
                    <use fill="black" fill-opacity="1" filter="url(#filter-4)" xlink:href="#path-3"></use>
                </g>
                <g id="形状结合">
                    <use fill="black" fill-opacity="1" filter="url(#filter-7)" xlink:href="#path-6"></use>
                    <use fill="url(#linearGradient-5)" fill-rule="evenodd" xlink:href="#path-6"></use>
                    <use fill="black" fill-opacity="1" filter="url(#filter-8)" xlink:href="#path-6"></use>
                </g>
            </g>
            <g id="路径-4" opacity="0.836784726">
                <use fill="url(#linearGradient-9)" fill-rule="evenodd" xlink:href="#path-10"></use>
                <use fill="black" fill-opacity="1" filter="url(#filter-11)" xlink:href="#path-10"></use>
            </g>
            <path d="M17.5031375,6.31677084 C17.9265623,5.89440972 17.7571844,5.89440972 18.1806092,6.31677084 C18.8580942,7.07703411 19.6202483,7.75282515 20.29772,8.51310168 C20.4670846,8.68204613 20.4670846,8.76651835 20.29772,8.9354628 C19.9589908,9.18887947 19.9589908,9.18887947 20.29772,9.4423094 C20.8058138,10.0336282 21.3986166,10.5404748 21.9067237,10.9628492 C21.991406,11.0473214 21.991406,11.2162659 21.9067237,11.3007381 C21.6526768,11.5541548 21.4832989,11.8075847 21.2292387,11.9765291 C21.1445564,12.0610014 21.0598741,12.0610014 20.9751917,11.9765291 L19.2815058,10.2870582 C19.1121412,10.1181137 19.0274589,10.1181137 18.8580942,10.2870582 C18.6040473,10.624947 18.6040473,10.624947 18.3499871,10.2870582 C17.7571977,9.78021155 16.4869365,8.51310168 16.0635117,8.00624182 C15.9788294,7.9217696 15.9788294,7.83729738 16.0635117,7.75282515 L17.5031242,6.31675758 L17.5031375,6.31677084 Z M26.3949789,6.23229861 C25.6328248,7.07703411 24.8706575,7.9217696 24.0238212,8.76651835 C23.8544566,8.9354628 23.8544566,9.10440725 23.9391389,9.35783718 C24.1931858,9.949156 24.3625504,10.5404748 24.531915,11.1317936 C24.6166106,11.3007381 24.7012929,11.3852103 24.8706708,11.3852103 C25.4634469,11.4696825 26.140932,11.638627 26.7337214,11.7231125 C26.9877683,11.8075847 27.0724506,11.7231125 27.2418152,11.554168 C27.9193002,10.878377 28.5120897,10.1181004 29.1895614,9.4423094 L29.4436083,9.18889273 C29.5282906,9.61125385 29.5282906,10.0336282 29.4436083,10.3715304 C29.1048791,11.8920569 28.0039826,12.8212779 26.4796612,13.0746946 C25.9715674,13.1591668 25.4634469,13.0746946 24.9553531,12.9057501 C24.8706708,12.9057501 24.6166239,12.9057501 24.5319283,12.9902223 C23.1769715,13.8349578 21.991406,14.9331233 20.9751917,16.2002331 C20.8905094,16.3691776 20.8058271,16.4536498 20.8905094,16.6226075 C21.2292387,17.8052452 20.4670979,18.9878828 19.3661881,19.2412995 C18.0959269,19.4947161 17.079726,18.7344661 16.8256658,17.6363007 C16.5716188,16.3691908 17.5031375,15.102081 18.8580942,15.102081 L19.4508704,15.102081 C19.5355527,15.102081 19.620235,15.102081 19.7049306,15.0176087 C20.8905094,13.9194301 21.9067237,12.6523202 22.75356,11.2162526 C22.8382423,11.1317804 22.8382423,10.9628359 22.75356,10.7938915 C21.991406,8.76650509 23.2616539,6.57017425 25.3787646,6.23228535 C25.7174939,6.14781313 26.0562364,6.23228535 26.3949789,6.23228535 L26.3949789,6.23229861 Z M20.0436731,17.2139263 C20.0436731,16.5381353 19.535566,16.0312887 18.8580942,16.0312887 C18.1806092,16.0312887 17.6725154,16.5381353 17.6725154,17.2139263 C17.6725154,17.8897174 18.1806092,18.396564 18.8580942,18.396564 C19.5355527,18.396564 20.0436731,17.8052584 20.0436731,17.2139263 Z M26.6490258,19.325785 C26.3102966,19.325785 25.9715674,19.2413127 25.7175072,18.9878828 C24.7012929,17.9741896 23.7697743,16.9605097 22.75356,15.9468165 C22.6688777,15.8623442 22.6688777,15.6933998 22.75356,15.6089276 C23.3463495,14.6796933 24.1085035,13.9194301 25.2094,13.4970689 C25.3787646,13.4125967 25.4634469,13.4125967 25.5481293,13.5815412 C26.4796612,14.5107621 27.4111931,15.3554976 28.3427118,16.2002331 C29.0201835,16.791552 29.0201835,17.6363007 28.3427118,18.2276195 L27.6652533,18.9033973 C27.4111931,19.1568272 27.0724506,19.325785 26.6490258,19.325785 L26.6490258,19.325785 Z M28.0039958,16.791552 L25.4634469,14.2573322 C25.2940823,14.0883878 25.1247177,14.17286 24.9553531,14.2573322 C24.7859885,14.4262767 24.7859885,14.5952211 24.9553531,14.7641788 C24.9553531,14.848651 27.5805577,17.3828708 27.5805577,17.3828708 C27.5805577,17.3828708 27.8346047,17.467343 28.0886516,17.2983986 C28.1733472,17.1294541 28.0039693,16.7915652 28.0039693,16.7915652 L28.0039958,16.791552 Z M23.7697743,15.3554976 C23.6004097,15.5244421 23.685092,15.862331 23.7697743,15.9468165 C24.531915,16.791552 25.3787646,17.5518285 26.2256143,18.396564 C26.3949789,18.5655084 26.6490258,18.6499806 26.8183904,18.4810362 C26.9877683,18.3120918 26.9877683,18.0586751 26.7337081,17.8897306 C25.9715674,17.0449819 25.1247177,16.2847186 24.2778814,15.5244421 C24.2778814,15.3554976 24.0238345,15.1865532 23.7697743,15.3554976 Z" id="形状" fill="#FFFFFF" fill-rule="nonzero"></path>
        </g>
    </g>
</svg>