<?xml version="1.0" encoding="UTF-8"?>
<svg width="56px" height="56px" viewBox="0 0 56 56" version="1.1" xmlns="http://www.w3.org/2000/svg" xmlns:xlink="http://www.w3.org/1999/xlink">
    <title>ICON/Security_tools/应用修复</title>
    <defs>
        <filter x="-13.5%" y="-16.9%" width="139.4%" height="144.3%" filterUnits="objectBoundingBox" id="filter-1">
            <feOffset dx="0" dy="1" in="SourceAlpha" result="shadowOffsetOuter1"></feOffset>
            <feGaussianBlur stdDeviation="1" in="shadowOffsetOuter1" result="shadowBlurOuter1"></feGaussianBlur>
            <feColorMatrix values="0 0 0 0 0   0 0 0 0 0   0 0 0 0 0  0 0 0 0.2 0" type="matrix" in="shadowBlurOuter1" result="shadowMatrixOuter1"></feColorMatrix>
            <feMerge>
                <feMergeNode in="shadowMatrixOuter1"></feMergeNode>
                <feMergeNode in="SourceGraphic"></feMergeNode>
            </feMerge>
        </filter>
        <linearGradient x1="50%" y1="1.09016263%" x2="50%" y2="99.2116034%" id="linearGradient-2">
            <stop stop-color="#FFFFFF" offset="0%"></stop>
            <stop stop-color="#F6FBFF" offset="100%"></stop>
        </linearGradient>
        <linearGradient x1="50.0005263%" y1="0.348205128%" x2="50.0005263%" y2="103.831213%" id="linearGradient-3">
            <stop stop-color="#838383" offset="0%"></stop>
            <stop stop-color="#1E1E1E" offset="100%"></stop>
        </linearGradient>
        <linearGradient x1="50%" y1="0%" x2="50%" y2="100%" id="linearGradient-4">
            <stop stop-color="#FFFFFF" offset="0%"></stop>
            <stop stop-color="#F4FBFF" offset="100%"></stop>
        </linearGradient>
        <ellipse id="path-5" cx="42.5386843" cy="4.74193548" rx="1.35043442" ry="1.35483871"></ellipse>
        <filter x="-666.5%" y="-442.9%" width="1432.9%" height="1428.6%" filterUnits="objectBoundingBox" id="filter-6">
            <feOffset dx="0" dy="6" in="SourceAlpha" result="shadowOffsetOuter1"></feOffset>
            <feGaussianBlur stdDeviation="5" in="shadowOffsetOuter1" result="shadowBlurOuter1"></feGaussianBlur>
            <feColorMatrix values="0 0 0 0 0   0 0 0 0 0.620580554   0 0 0 0 1  0 0 0 0.467903191 0" type="matrix" in="shadowBlurOuter1"></feColorMatrix>
        </filter>
        <filter x="-388.8%" y="-166.1%" width="877.5%" height="875.0%" filterUnits="objectBoundingBox" id="filter-7">
            <feOffset dx="0" dy="1" in="SourceAlpha" result="shadowOffsetInner1"></feOffset>
            <feComposite in="shadowOffsetInner1" in2="SourceAlpha" operator="arithmetic" k2="-1" k3="1" result="shadowInnerInner1"></feComposite>
            <feColorMatrix values="0 0 0 0 0.999901831   0 0 0 0 1   0 0 0 0 0.999879897  0 0 0 1 0" type="matrix" in="shadowInnerInner1"></feColorMatrix>
        </filter>
        <ellipse id="path-8" cx="37.1369466" cy="4.74193548" rx="1.35043442" ry="1.35483871"></ellipse>
        <filter x="-666.5%" y="-442.9%" width="1432.9%" height="1428.6%" filterUnits="objectBoundingBox" id="filter-9">
            <feOffset dx="0" dy="6" in="SourceAlpha" result="shadowOffsetOuter1"></feOffset>
            <feGaussianBlur stdDeviation="5" in="shadowOffsetOuter1" result="shadowBlurOuter1"></feGaussianBlur>
            <feColorMatrix values="0 0 0 0 0   0 0 0 0 0.620580554   0 0 0 0 1  0 0 0 0.467903191 0" type="matrix" in="shadowBlurOuter1"></feColorMatrix>
        </filter>
        <filter x="-388.8%" y="-166.1%" width="877.5%" height="875.0%" filterUnits="objectBoundingBox" id="filter-10">
            <feOffset dx="0" dy="1" in="SourceAlpha" result="shadowOffsetInner1"></feOffset>
            <feComposite in="shadowOffsetInner1" in2="SourceAlpha" operator="arithmetic" k2="-1" k3="1" result="shadowInnerInner1"></feComposite>
            <feColorMatrix values="0 0 0 0 0.999901831   0 0 0 0 1   0 0 0 0 0.999879897  0 0 0 1 0" type="matrix" in="shadowInnerInner1"></feColorMatrix>
        </filter>
        <circle id="path-11" cx="12" cy="12" r="12"></circle>
        <filter x="-43.8%" y="-31.2%" width="187.5%" height="187.5%" filterUnits="objectBoundingBox" id="filter-12">
            <feOffset dx="0" dy="3" in="SourceAlpha" result="shadowOffsetOuter1"></feOffset>
            <feGaussianBlur stdDeviation="3" in="shadowOffsetOuter1" result="shadowBlurOuter1"></feGaussianBlur>
            <feColorMatrix values="0 0 0 0 0.180392157   0 0 0 0 0.905882353   0 0 0 0 0.6  0 0 0 1 0" type="matrix" in="shadowBlurOuter1"></feColorMatrix>
        </filter>
        <linearGradient x1="100%" y1="100%" x2="0%" y2="10.8496407%" id="linearGradient-13">
            <stop stop-color="#05E873" offset="0%"></stop>
            <stop stop-color="#00D1B1" offset="100%"></stop>
        </linearGradient>
        <path d="M11.988242,2.38231724 C6.64484582,2.38231724 2.38824203,6.63892102 2.38824203,11.9823172 C2.38824203,17.3257135 6.64484582,21.5823172 11.988242,21.5823172 C17.3316382,21.5823172 21.588242,17.3257135 21.588242,11.9823172 C21.588242,6.63892102 17.3316382,2.38231724 11.988242,2.38231724 Z" id="path-14"></path>
        <filter x="-7.8%" y="-7.8%" width="115.6%" height="115.6%" filterUnits="objectBoundingBox" id="filter-15">
            <feGaussianBlur stdDeviation="1" in="SourceAlpha" result="shadowBlurInner1"></feGaussianBlur>
            <feOffset dx="0" dy="1" in="shadowBlurInner1" result="shadowOffsetInner1"></feOffset>
            <feComposite in="shadowOffsetInner1" in2="SourceAlpha" operator="arithmetic" k2="-1" k3="1" result="shadowInnerInner1"></feComposite>
            <feColorMatrix values="0 0 0 0 1   0 0 0 0 1   0 0 0 0 1  0 0 0 0.811071009 0" type="matrix" in="shadowInnerInner1"></feColorMatrix>
        </filter>
    </defs>
    <g id="ICON/Security_tools/应用修复" stroke="none" stroke-width="1" fill="none" fill-rule="evenodd">
        <rect id="矩形" opacity="0" x="0" y="0" width="56" height="56"></rect>
        <g id="编组-9" filter="url(#filter-1)" transform="translate(4.000000, 7.000000)">
            <g id="编组-3备份">
                <path d="M2.37460843,0.193548387 L45.6849696,0.193548387 C46.9635256,0.193548387 48,1.23002282 48,2.50857883 L48,38.5274543 C48,40.4452884 46.4452884,42 44.5274543,42 L3.53212365,42 C1.61428964,42 0.0595779892,40.4452884 0.0595779892,38.5274543 L0.0595779892,2.50857883 C0.0595779892,1.23002282 1.09605242,0.193548387 2.37460843,0.193548387 Z" id="矩形" fill="url(#linearGradient-2)"></path>
                <path d="M2.31503044,0 L45.6253916,0 C46.9039476,2.09222282e-16 47.940422,1.03647443 47.940422,2.31503044 L47.940422,9.48387097 L47.940422,9.48387097 L0,9.48387097 L0,2.31503044 C-1.56577952e-16,1.03647443 1.03647443,6.78956138e-16 2.31503044,0 Z" id="矩形" fill="url(#linearGradient-3)"></path>
                <g id="椭圆形备份">
                    <use fill="black" fill-opacity="1" filter="url(#filter-6)" xlink:href="#path-5"></use>
                    <use fill="url(#linearGradient-4)" fill-rule="evenodd" xlink:href="#path-5"></use>
                    <use fill="black" fill-opacity="1" filter="url(#filter-7)" xlink:href="#path-5"></use>
                </g>
                <g id="椭圆形备份">
                    <use fill="black" fill-opacity="1" filter="url(#filter-9)" xlink:href="#path-8"></use>
                    <use fill="url(#linearGradient-4)" fill-rule="evenodd" xlink:href="#path-8"></use>
                    <use fill="black" fill-opacity="1" filter="url(#filter-10)" xlink:href="#path-8"></use>
                </g>
            </g>
            <g id="编组-8" transform="translate(12.000000, 14.000000)">
                <g id="椭圆形" opacity="0.128805978">
                    <use fill="black" fill-opacity="1" filter="url(#filter-12)" xlink:href="#path-11"></use>
                    <use fill="#2CE1A8" fill-rule="evenodd" xlink:href="#path-11"></use>
                </g>
                <circle id="椭圆形" fill="#FFFFFF" cx="12" cy="12" r="9.6"></circle>
                <g id="形状" opacity="0.836784726">
                    <use fill="url(#linearGradient-13)" fill-rule="evenodd" xlink:href="#path-14"></use>
                    <use fill="black" fill-opacity="1" filter="url(#filter-15)" xlink:href="#path-14"></use>
                </g>
                <g id="维修" transform="translate(6.567666, 6.551372)" fill="#FFFFFF" fill-rule="nonzero">
                    <rect id="矩形" opacity="0" x="0" y="0" width="11.3441496" height="11.3160069"></rect>
                    <path d="M1.29672272,0.263981223 C1.64957673,-0.0879863738 1.50842848,-0.0879863738 1.86128249,0.263981223 C2.42585334,0.897533948 3.06098171,1.46069315 3.62554148,2.09425693 C3.76667866,2.23504397 3.76667866,2.30543749 3.62554148,2.44622453 C3.34326713,2.65740508 3.34326713,2.65740508 3.62554148,2.86859669 C4.04895301,3.36136238 4.54295527,3.78373455 4.96637787,4.13571319 C5.03694646,4.20610671 5.03694646,4.34689375 4.96637787,4.41728727 C4.75467211,4.62846783 4.61352386,4.83965944 4.40180702,4.98044648 C4.33123843,5.05083999 4.26066985,5.05083999 4.19010126,4.98044648 L2.77869628,3.57255399 C2.63755911,3.43176695 2.56699052,3.43176695 2.42585334,3.57255399 C2.21414758,3.85412806 2.21414758,3.85412806 2.00243074,3.57255399 C1.50843955,3.15018182 0.449888591,2.09425693 0.0970345769,1.67187371 C0.0264659898,1.60148019 0.0264659898,1.53108667 0.0970345769,1.46069315 L1.29671164,0.263970172 L1.29672272,0.263981223 Z M8.70659054,0.193587704 C8.07146218,0.897533948 7.43632274,1.60148019 6.73062579,2.30543749 C6.58948861,2.44622453 6.58948861,2.58701156 6.6600572,2.79820317 C6.87176296,3.29096886 7.01290014,3.78373455 7.15403731,4.27650023 C7.22461698,4.41728727 7.29518556,4.48768079 7.43633382,4.48768079 C7.93031393,4.55807431 8.49488478,4.69886135 8.98887597,4.76926592 C9.20058173,4.83965944 9.27115032,4.76926592 9.41228749,4.62847888 C9.97685834,4.06531967 10.4708495,3.4317559 11.0354093,2.86859669 L11.2471151,2.65741613 C11.3176837,3.00938373 11.3176837,3.36136238 11.2471151,3.64294751 C10.9648407,4.91005296 10.0474269,5.68440377 8.77715913,5.89558433 C8.35374761,5.96597785 7.93031393,5.89558433 7.5069024,5.75479729 C7.43633382,5.75479729 7.22462805,5.75479729 7.15404839,5.82519081 C6.02491776,6.52913705 5.03694646,7.44427491 4.19010126,8.5001998 C4.11953267,8.64098684 4.04896408,8.71138036 4.11953267,8.85217845 C4.40180702,9.83770982 3.76668974,10.8232412 2.84926487,11.0344217 C1.7907139,11.2456023 0.943879779,10.6120606 0.73216294,9.69692278 C0.520457178,8.64099789 1.29672272,7.585073 2.42585334,7.585073 L2.91983345,7.585073 C2.99040204,7.585073 3.06097063,7.585073 3.13155029,7.51467948 C4.11953267,6.59953057 4.96637787,5.54360568 5.67207482,4.3468827 C5.74264341,4.27648918 5.74264341,4.13570214 5.67207482,3.9949151 C5.03694646,2.30542644 6.09548635,0.47515073 7.85974534,0.193576653 C8.14201969,0.123183133 8.42430511,0.193576653 8.70659054,0.193576653 L8.70659054,0.193587704 Z M3.41383572,9.34494413 C3.41383572,8.78178493 2.99041312,8.35941276 2.42585334,8.35941276 C1.86128249,8.35941276 1.43787097,8.78178493 1.43787097,9.34494413 C1.43787097,9.90810334 1.86128249,10.3304755 2.42585334,10.3304755 C2.99040204,10.3304755 3.41383572,9.83772087 3.41383572,9.34494413 Z M8.9182963,11.1048263 C8.63602195,11.1048263 8.35374761,11.0344328 8.14203077,10.8232412 C7.29518556,9.97849686 6.51892003,9.13376357 5.67207482,8.28901924 C5.60150624,8.21862572 5.60150624,8.07783868 5.67207482,8.00744516 C6.16606601,7.2330833 6.80119437,6.59953057 7.71860816,6.24756298 C7.85974534,6.17716946 7.93031393,6.17716946 8.00088251,6.3179565 C8.77715913,7.09230731 9.55343574,7.79625355 10.3297013,8.5001998 C10.8942611,8.99296548 10.8942611,9.69692278 10.3297013,10.1896885 L9.76515258,10.7528366 C9.55343574,10.9640282 9.27115032,11.1048263 8.9182963,11.1048263 L8.9182963,11.1048263 Z M10.047438,8.99296548 L7.93031393,6.8811157 C7.78917675,6.74032866 7.64803958,6.81072218 7.5069024,6.8811157 C7.36576523,7.02190274 7.36576523,7.16268978 7.5069024,7.30348787 C7.5069024,7.37388139 9.69457292,9.48573117 9.69457292,9.48573117 C9.69457292,9.48573117 9.90627868,9.55612469 10.1179844,9.41533765 C10.1885641,9.27455061 10.0474159,8.99297653 10.0474159,8.99297653 L10.047438,8.99296548 Z M6.51892003,7.79625355 C6.37778285,7.93704059 6.44835144,8.21861467 6.51892003,8.28901924 C7.15403731,8.99296548 7.85974534,9.62652926 8.56545337,10.3304755 C8.70659054,10.4712625 8.9182963,10.5416561 9.05943348,10.400869 C9.20058173,10.260082 9.20058173,10.0489014 8.98886489,9.90811439 C8.35374761,9.20415709 7.64803958,8.57060437 6.94234263,7.93704059 C6.94234263,7.79625355 6.73063687,7.65546651 6.51892003,7.79625355 Z" id="形状"></path>
                </g>
            </g>
        </g>
    </g>
</svg>